<svg width="21" height="27" viewBox="0 0 21 27" fill="none" xmlns="http://www.w3.org/2000/svg">
<path d="M10.4894 26.3381C8.63006 26.3381 6.97594 26.0362 5.52708 25.4325C4.08626 24.8208 2.95534 23.9877 2.13432 22.9332C1.3133 21.8788 0.902788 20.6835 0.902788 19.3473C0.902788 18.317 1.13622 17.3712 1.60307 16.5099C2.07798 15.6406 2.72192 14.9202 3.53489 14.3487C4.34786 13.7692 5.25743 13.3989 6.26358 13.2379V13.0689C4.94351 12.8033 3.87296 12.1634 3.05194 11.1491C2.23091 10.1269 1.8204 8.93963 1.8204 7.58736C1.8204 6.30753 2.19469 5.16856 2.94327 4.17045C3.69185 3.1643 4.71813 2.37547 6.02211 1.80398C7.33413 1.22443 8.82324 0.934658 10.4894 0.934658C12.1556 0.934658 13.6407 1.22443 14.9447 1.80398C16.2567 2.38352 17.287 3.17637 18.0356 4.18253C18.7842 5.18063 19.1625 6.31558 19.1705 7.58736C19.1625 8.94768 18.7439 10.1349 17.9149 11.1491C17.0858 12.1634 16.0233 12.8033 14.7274 13.0689V13.2379C15.7174 13.3989 16.6149 13.7692 17.4198 14.3487C18.2328 14.9202 18.8767 15.6406 19.3517 16.5099C19.8346 17.3712 20.0801 18.317 20.0882 19.3473C20.0801 20.6835 19.6656 21.8788 18.8445 22.9332C18.0235 23.9877 16.8886 24.8208 15.4397 25.4325C13.9989 26.0362 12.3488 26.3381 10.4894 26.3381ZM10.4894 22.4986C11.3185 22.4986 12.0429 22.3497 12.6627 22.0518C13.2825 21.746 13.7655 21.3274 14.1116 20.7962C14.4658 20.2569 14.6428 19.6371 14.6428 18.9368C14.6428 18.2204 14.4617 17.5885 14.0995 17.0412C13.7373 16.4858 13.2463 16.0511 12.6265 15.7372C12.0067 15.4152 11.2944 15.2543 10.4894 15.2543C9.69256 15.2543 8.9802 15.4152 8.35236 15.7372C7.72452 16.0511 7.22949 16.4858 6.86728 17.0412C6.51311 17.5885 6.33603 18.2204 6.33603 18.9368C6.33603 19.6371 6.50909 20.2569 6.8552 20.7962C7.20132 21.3274 7.6883 21.746 8.31614 22.0518C8.94398 22.3497 9.66841 22.4986 10.4894 22.4986ZM10.4894 11.451C11.1817 11.451 11.7974 11.3101 12.3367 11.0284C12.876 10.7467 13.2986 10.3563 13.6045 9.85724C13.9104 9.35819 14.0633 8.78267 14.0633 8.13068C14.0633 7.48674 13.9104 6.92329 13.6045 6.44034C13.2986 5.94934 12.8801 5.567 12.3488 5.29332C11.8176 5.0116 11.1978 4.87074 10.4894 4.87074C9.78915 4.87074 9.16936 5.0116 8.63006 5.29332C8.09076 5.567 7.66818 5.94934 7.3623 6.44034C7.06448 6.92329 6.91557 7.48674 6.91557 8.13068C6.91557 8.78267 7.06851 9.35819 7.37438 9.85724C7.68025 10.3563 8.10284 10.7467 8.64213 11.0284C9.18143 11.3101 9.7972 11.451 10.4894 11.451Z" fill="#656565"/>
</svg>
