<svg width="19" height="26" viewBox="0 0 19 26" fill="none" xmlns="http://www.w3.org/2000/svg">
<path d="M9.07848 25.3381C7.37204 25.3381 5.85073 25.0241 4.51456 24.3963C3.18643 23.7685 2.13198 22.9032 1.35121 21.8004C0.570431 20.6977 0.163944 19.4339 0.131747 18.0092H5.20277C5.25911 18.9671 5.66158 19.7438 6.41016 20.3395C7.15874 20.9351 8.04818 21.233 9.07848 21.233C9.8995 21.233 10.6239 21.0518 11.2518 20.6896C11.8877 20.3194 12.3827 19.8082 12.7369 19.1562C13.0991 18.4962 13.2802 17.7396 13.2802 16.8864C13.2802 16.017 13.0951 15.2524 12.7248 14.5923C12.3626 13.9323 11.8595 13.4171 11.2156 13.0469C10.5716 12.6766 9.83511 12.4875 9.00604 12.4794C8.28161 12.4794 7.5773 12.6283 6.89311 12.9261C6.21697 13.224 5.68975 13.6304 5.31144 14.1456L0.662997 13.3125L1.83416 0.272727H16.9506V4.54688H6.14453L5.50462 10.7408H5.6495C6.08416 10.129 6.74018 9.62192 7.61754 9.21946C8.49491 8.817 9.47692 8.61577 10.5636 8.61577C12.0527 8.61577 13.3808 8.96591 14.5479 9.66619C15.7151 10.3665 16.6367 11.3284 17.3129 12.5518C17.989 13.7673 18.323 15.1679 18.315 16.7536C18.323 18.4197 17.9367 19.9008 17.1559 21.1967C16.3832 22.4846 15.3005 23.4988 13.908 24.2393C12.5236 24.9718 10.9137 25.3381 9.07848 25.3381Z" fill="#656565"/>
</svg>
