<svg width="21" height="27" viewBox="0 0 21 27" fill="none" xmlns="http://www.w3.org/2000/svg">
<path d="M10.2283 0.934658C11.5001 0.934658 12.7236 1.14796 13.8988 1.57457C15.082 2.00118 16.1365 2.68134 17.0621 3.61506C17.9959 4.54877 18.7324 5.78835 19.2717 7.33381C19.819 8.87121 20.0967 10.7588 20.1048 12.9964C20.1048 15.0973 19.8673 16.9728 19.3924 18.6229C18.9255 20.2649 18.2534 21.6615 17.3761 22.8125C16.4987 23.9635 15.4402 24.8409 14.2006 25.4446C12.9611 26.0402 11.5766 26.3381 10.0472 26.3381C8.39714 26.3381 6.94022 26.0201 5.67649 25.3842C4.41276 24.7403 3.39453 23.867 2.6218 22.7642C1.85713 21.6534 1.39429 20.4058 1.23331 19.0213H6.38885C6.59008 19.9228 7.01267 20.6231 7.65661 21.1222C8.30054 21.6132 9.09742 21.8587 10.0472 21.8587C11.6571 21.8587 12.8806 21.1584 13.7177 19.7578C14.5548 18.3492 14.9774 16.4214 14.9854 13.9744H14.8164C14.4461 14.6989 13.9471 15.3227 13.3192 15.8459C12.6914 16.361 11.971 16.7595 11.158 17.0412C10.3531 17.3229 9.49586 17.4638 8.58629 17.4638C7.12938 17.4638 5.82943 17.1217 4.68643 16.4375C3.54344 15.7533 2.64193 14.8116 1.98189 13.6122C1.32185 12.4129 0.991832 11.0445 0.991832 9.5071C0.983783 7.84896 1.36612 6.37192 2.13885 5.07599C2.91158 3.78007 3.99018 2.76586 5.37465 2.03338C6.76716 1.29285 8.38506 0.926609 10.2283 0.934658ZM10.2646 5.03977C9.45159 5.03977 8.72715 5.23295 8.09126 5.61932C7.46342 6.00568 6.96437 6.52486 6.59411 7.17685C6.23189 7.82883 6.05481 8.55729 6.06286 9.36222C6.06286 10.1752 6.23994 10.9077 6.59411 11.5597C6.95632 12.2036 7.44733 12.7187 8.06712 13.1051C8.69496 13.4834 9.41134 13.6726 10.2163 13.6726C10.82 13.6726 11.3794 13.5599 11.8945 13.3345C12.4097 13.1091 12.8564 12.7992 13.2347 12.4048C13.6211 12.0024 13.9229 11.5395 14.1403 11.0163C14.3576 10.4931 14.4663 9.93774 14.4663 9.35014C14.4582 8.56936 14.2731 7.85298 13.9109 7.20099C13.5487 6.54901 13.0496 6.0258 12.4137 5.63139C11.7778 5.23698 11.0614 5.03977 10.2646 5.03977Z" fill="#656565"/>
</svg>
