<svg width="24" height="27" viewBox="0 0 24 27" fill="none" xmlns="http://www.w3.org/2000/svg">
<path d="M12.9297 21.3636V20.0597C12.9297 19.0696 13.139 18.16 13.5575 17.331C13.9841 16.4938 14.5999 15.8258 15.4048 15.3267C16.2178 14.8196 17.2079 14.5661 18.375 14.5661C19.5582 14.5661 20.5523 14.8156 21.3572 15.3146C22.1702 15.8137 22.782 16.4818 23.1925 17.3189C23.611 18.148 23.8203 19.0616 23.8203 20.0597V21.3636C23.8203 22.3537 23.611 23.2673 23.1925 24.1044C22.7739 24.9335 22.1581 25.5975 21.3452 26.0966C20.5322 26.6037 19.5421 26.8572 18.375 26.8572C17.1918 26.8572 16.1977 26.6037 15.3928 26.0966C14.5878 25.5975 13.9761 24.9335 13.5575 24.1044C13.139 23.2673 12.9297 22.3537 12.9297 21.3636ZM16.4432 20.0597V21.3636C16.4432 21.9351 16.58 22.4744 16.8537 22.9815C17.1354 23.4886 17.6425 23.7422 18.375 23.7422C19.1075 23.7422 19.6065 23.4927 19.8722 22.9936C20.1458 22.4946 20.2827 21.9512 20.2827 21.3636V20.0597C20.2827 19.4721 20.1539 18.9247 19.8963 18.4176C19.6387 17.9105 19.1316 17.657 18.375 17.657C17.6506 17.657 17.1475 17.9105 16.8658 18.4176C16.584 18.9247 16.4432 19.4721 16.4432 20.0597ZM0.240057 7.21307V5.90909C0.240057 4.91098 0.453362 3.9974 0.879972 3.16832C1.30658 2.3312 1.92235 1.66311 2.72727 1.16406C3.54025 0.665009 4.52225 0.415482 5.6733 0.415482C6.86458 0.415482 7.86269 0.665009 8.66761 1.16406C9.47254 1.66311 10.0843 2.3312 10.5028 3.16832C10.9214 3.9974 11.1307 4.91098 11.1307 5.90909V7.21307C11.1307 8.21117 10.9174 9.12476 10.4908 9.95383C10.0722 10.7829 9.45644 11.447 8.64347 11.946C7.83854 12.437 6.84849 12.6825 5.6733 12.6825C4.49811 12.6825 3.50402 12.433 2.69105 11.9339C1.88613 11.4268 1.27438 10.7628 0.855824 9.94176C0.445313 9.11269 0.240057 8.20312 0.240057 7.21307ZM3.7777 5.90909V7.21307C3.7777 7.80066 3.91454 8.34399 4.18821 8.84304C4.46993 9.34209 4.96496 9.59162 5.6733 9.59162C6.41383 9.59162 6.9169 9.34209 7.18253 8.84304C7.4562 8.34399 7.59304 7.80066 7.59304 7.21307V5.90909C7.59304 5.3215 7.46425 4.77415 7.20668 4.26704C6.9491 3.75994 6.43797 3.50639 5.6733 3.50639C4.95691 3.50639 4.46188 3.76397 4.18821 4.27912C3.91454 4.79427 3.7777 5.33759 3.7777 5.90909ZM1.83381 26L18.8338 1.27273H21.9972L4.99716 26H1.83381Z" fill="#656565"/>
</svg>
