<svg width="23" height="26" viewBox="0 0 23 26" fill="none" xmlns="http://www.w3.org/2000/svg">
<path d="M22.2522 8.37926H18.4852C18.3403 7.57434 18.0707 6.866 17.6762 6.25426C17.2818 5.64252 16.7989 5.12334 16.2274 4.69673C15.6559 4.27012 15.016 3.94815 14.3076 3.73082C13.6074 3.51349 12.8628 3.40483 12.074 3.40483C10.6493 3.40483 9.37345 3.76302 8.24656 4.4794C7.12772 5.19579 6.2423 6.24621 5.59031 7.63068C4.94637 9.01515 4.6244 10.7055 4.6244 12.7017C4.6244 14.714 4.94637 16.4124 5.59031 17.7969C6.2423 19.1813 7.13174 20.2277 8.25863 20.9361C9.38553 21.6444 10.6533 21.9986 12.0619 21.9986C12.8427 21.9986 13.5832 21.8939 14.2835 21.6847C14.9918 21.4673 15.6317 21.1494 16.2032 20.7308C16.7747 20.3123 17.2577 19.8011 17.6521 19.1974C18.0546 18.5857 18.3323 17.8854 18.4852 17.0966L22.2522 17.1087C22.051 18.3241 21.6606 19.4429 21.0811 20.4652C20.5096 21.4794 19.7731 22.3568 18.8716 23.0973C17.9781 23.8298 16.9558 24.3973 15.8048 24.7997C14.6538 25.2022 13.3981 25.4034 12.0378 25.4034C9.89666 25.4034 7.98898 24.8963 6.31474 23.8821C4.6405 22.8598 3.32042 21.3989 2.35451 19.4993C1.39665 17.5997 0.917725 15.3338 0.917725 12.7017C0.917725 10.0616 1.40068 7.79569 2.36659 5.90412C3.3325 4.0045 4.65257 2.54759 6.32682 1.53338C8.00106 0.511127 9.90471 0 12.0378 0C13.3498 0 14.5733 0.189158 15.7082 0.567473C16.8512 0.937737 17.8775 1.48509 18.787 2.20952C19.6966 2.9259 20.4492 3.80327 21.0449 4.84162C21.6405 5.87192 22.043 7.05114 22.2522 8.37926Z" fill="#CD1F20"/>
</svg>
