<svg width="21" height="27" viewBox="0 0 21 27" fill="none" xmlns="http://www.w3.org/2000/svg">
<path d="M10.7717 26.3381C9.49988 26.33 8.27237 26.1167 7.08913 25.6982C5.91394 25.2796 4.85949 24.5994 3.92578 23.6577C2.99207 22.7159 2.25154 21.4683 1.70419 19.9148C1.16489 18.3613 0.895242 16.4536 0.895242 14.1918C0.903291 12.1151 1.14074 10.2597 1.6076 8.62571C2.0825 6.98366 2.75864 5.59114 3.63601 4.44815C4.52143 3.30516 5.5799 2.43584 6.81144 1.8402C8.04297 1.2365 9.42341 0.934658 10.9528 0.934658C12.6029 0.934658 14.0598 1.25663 15.3235 1.90057C16.5872 2.53646 17.6014 3.40175 18.3661 4.49645C19.1388 5.59115 19.6057 6.81865 19.7667 8.17898H14.6112C14.4099 7.31771 13.9873 6.64157 13.3434 6.15057C12.6995 5.65956 11.9026 5.41406 10.9528 5.41406C9.34292 5.41406 8.11944 6.11435 7.28232 7.51491C6.45324 8.91548 6.03066 10.8191 6.01456 13.2259H6.18359C6.55386 12.4934 7.05291 11.8696 7.68075 11.3544C8.31664 10.8312 9.03705 10.4328 9.84197 10.1591C10.6549 9.87737 11.5122 9.7365 12.4137 9.7365C13.8787 9.7365 15.1826 10.0826 16.3256 10.7749C17.4686 11.459 18.3701 12.4008 19.0302 13.6001C19.6902 14.7995 20.0202 16.1719 20.0202 17.7173C20.0202 19.3916 19.6299 20.8807 18.8491 22.1847C18.0764 23.4886 16.9937 24.5109 15.6012 25.2514C14.2167 25.9839 12.6069 26.3461 10.7717 26.3381ZM10.7475 22.233C11.5524 22.233 12.2728 22.0398 12.9087 21.6534C13.5446 21.267 14.0437 20.7438 14.4059 20.0838C14.7681 19.4238 14.9492 18.6832 14.9492 17.8622C14.9492 17.0412 14.7681 16.3047 14.4059 15.6527C14.0517 15.0007 13.5607 14.4815 12.9329 14.0952C12.305 13.7088 11.5887 13.5156 10.7837 13.5156C10.18 13.5156 9.62062 13.6283 9.10547 13.8537C8.59837 14.0791 8.15163 14.393 7.76527 14.7955C7.38696 15.1979 7.08913 15.6648 6.8718 16.196C6.65447 16.7192 6.54581 17.2786 6.54581 17.8743C6.54581 18.6712 6.72692 19.3996 7.08913 20.0597C7.4594 20.7197 7.95845 21.2469 8.58629 21.6413C9.22218 22.0357 9.94259 22.233 10.7475 22.233Z" fill="#656565"/>
</svg>
