<svg width="19" height="27" viewBox="0 0 19 27" fill="none" xmlns="http://www.w3.org/2000/svg">
<path d="M9.43812 26.3381C7.63509 26.3381 6.02927 26.0282 4.62065 25.4084C3.22008 24.7805 2.11331 23.9193 1.30034 22.8246C0.495413 21.7218 0.0808772 20.45 0.0567295 19.0092H5.32093C5.35313 19.6129 5.55034 20.1442 5.91255 20.603C6.28282 21.0537 6.77382 21.4039 7.38556 21.6534C7.99731 21.9029 8.68552 22.0277 9.4502 22.0277C10.2471 22.0277 10.9514 21.8868 11.5631 21.6051C12.1749 21.3234 12.6538 20.933 12.9999 20.4339C13.346 19.9349 13.5191 19.3594 13.5191 18.7074C13.5191 18.0473 13.334 17.4638 12.9637 16.9567C12.6015 16.4415 12.0783 16.0391 11.3941 15.7493C10.718 15.4595 9.91303 15.3146 8.97931 15.3146H6.67321V11.4751H8.97931C9.76814 11.4751 10.4644 11.3383 11.0681 11.0646C11.6798 10.791 12.1547 10.4126 12.4928 9.92969C12.8309 9.43868 12.9999 8.86719 12.9999 8.2152C12.9999 7.59541 12.851 7.05208 12.5532 6.58523C12.2634 6.11032 11.8529 5.74006 11.3216 5.47443C10.7984 5.20881 10.1867 5.07599 9.48642 5.07599C8.77808 5.07599 8.13012 5.20478 7.54253 5.46236C6.95493 5.71188 6.48405 6.07007 6.12988 6.53693C5.77572 7.00379 5.58656 7.55114 5.56241 8.17898H0.551758C0.575906 6.75426 0.982392 5.49858 1.77122 4.41193C2.56004 3.32528 3.62254 2.47609 4.95872 1.86435C6.30294 1.24455 7.82022 0.934658 9.51057 0.934658C11.217 0.934658 12.7101 1.24455 13.99 1.86435C15.2698 2.48414 16.2639 3.32126 16.9722 4.37571C17.6886 5.42211 18.0428 6.5973 18.0347 7.90128C18.0428 9.28575 17.6121 10.4408 16.7428 11.3665C15.8815 12.2921 14.7587 12.8797 13.3742 13.1293V13.3224C15.1933 13.5559 16.5778 14.1877 17.5276 15.218C18.4855 16.2403 18.9604 17.5201 18.9523 19.0575C18.9604 20.4661 18.5539 21.7178 17.7329 22.8125C16.9199 23.9072 15.797 24.7685 14.3643 25.3963C12.9315 26.0241 11.2894 26.3381 9.43812 26.3381Z" fill="#656565"/>
</svg>
