<svg width="18" height="26" viewBox="0 0 18 26" fill="none" xmlns="http://www.w3.org/2000/svg">
<path d="M0.296254 26V22.233L9.0981 14.0831C9.84668 13.3587 10.4745 12.7067 10.9816 12.1271C11.4968 11.5476 11.8872 10.9801 12.1528 10.4247C12.4184 9.86127 12.5512 9.25355 12.5512 8.60156C12.5512 7.87713 12.3862 7.25331 12.0562 6.73011C11.7262 6.19886 11.2754 5.79238 10.7039 5.51065C10.1324 5.22088 9.48446 5.07599 8.76003 5.07599C8.0034 5.07599 7.34337 5.22893 6.77992 5.5348C6.21647 5.84067 5.78181 6.27936 5.47594 6.85085C5.17007 7.42235 5.01713 8.10251 5.01713 8.89133H0.0547764C0.0547764 7.27344 0.421017 5.86884 1.1535 4.67756C1.88598 3.48627 2.91226 2.56463 4.23233 1.91264C5.55241 1.26065 7.07372 0.934658 8.79625 0.934658C10.5671 0.934658 12.1085 1.24858 13.4205 1.87642C14.7406 2.49621 15.7669 3.35748 16.4994 4.46023C17.2319 5.56297 17.5981 6.8267 17.5981 8.25142C17.5981 9.18513 17.413 10.1068 17.0427 11.0163C16.6805 11.9259 16.0325 12.9361 15.0988 14.0469C14.1651 15.1496 12.849 16.4737 11.1507 18.0192L7.54057 21.5568V21.7259H17.9241V26H0.296254Z" fill="#656565"/>
</svg>
