<svg width="20" height="28" viewBox="0 0 20 28" fill="none" xmlns="http://www.w3.org/2000/svg">
<path d="M9.99547 26.5433C7.91877 26.5353 6.13184 26.0241 4.63468 25.0099C3.14557 23.9957 1.99855 22.5268 1.19363 20.603C0.396751 18.6792 0.00233785 16.3651 0.0103871 13.6605C0.0103871 10.964 0.408825 8.66596 1.2057 6.76633C2.01062 4.86671 3.15764 3.42187 4.64675 2.43182C6.14391 1.43371 7.92682 0.934658 9.99547 0.934658C12.0641 0.934658 13.843 1.43371 15.3321 2.43182C16.8293 3.42992 17.9803 4.87879 18.7852 6.77841C19.5902 8.66998 19.9886 10.964 19.9806 13.6605C19.9806 16.3731 19.5781 18.6913 18.7732 20.6151C17.9763 22.5388 16.8333 24.0078 15.3442 25.022C13.8551 26.0362 12.0722 26.5433 9.99547 26.5433ZM9.99547 22.2088C11.4121 22.2088 12.5431 21.4964 13.3882 20.0717C14.2334 18.647 14.652 16.5099 14.6439 13.6605C14.6439 11.785 14.4507 10.2235 14.0644 8.97585C13.6861 7.72822 13.1468 6.79048 12.4465 6.16264C11.7542 5.5348 10.9372 5.22088 9.99547 5.22088C8.58686 5.22088 7.45996 5.92519 6.61479 7.33381C5.76962 8.74242 5.34301 10.8513 5.33496 13.6605C5.33496 15.5601 5.52412 17.1458 5.90243 18.4176C6.2888 19.6813 6.83212 20.6312 7.5324 21.267C8.23269 21.8949 9.05371 22.2088 9.99547 22.2088Z" fill="#656565"/>
</svg>
